<svg width="122" height="157" viewBox="0 0 122 157" fill="none" xmlns="http://www.w3.org/2000/svg">
<path d="M0 96.2015C0 88.9844 1.96832 80.701 5.90495 71.3515C9.84159 62.002 14.9264 52.8985 21.1594 44.2051C33.9535 27.3104 45.1073 14.5163 54.4568 5.90495L60.6078 0C62.6581 2.13234 64.9545 4.10066 67.4149 5.90495C70.7774 9.34951 75.9443 15.0084 82.8334 23.0457C89.7225 31.083 95.7094 38.2182 100.63 44.7792C106.453 53.0626 111.456 62.002 115.475 71.4335C119.493 80.865 121.544 89.1484 121.544 96.2835C121.544 104.485 119.985 112.276 116.787 119.739C113.588 127.203 109.324 133.682 103.911 139.094C98.4979 144.507 92.0189 148.854 84.4736 152.053C76.9284 155.251 68.9731 156.891 60.6078 156.891C52.4065 156.891 44.6152 155.333 37.152 152.217C29.6888 149.1 23.2097 144.917 17.7969 139.504C12.384 134.174 8.03729 127.695 4.83878 120.231C1.64026 112.768 0 104.731 0 96.2015ZM18.535 72.1716C18.535 78.9787 19.9292 84.3916 22.7997 88.4923C25.6701 92.5109 30.0168 94.5613 35.8398 94.5613C41.7447 94.5613 46.0914 92.5109 49.0439 88.4923C51.9144 84.4736 53.3906 79.0608 53.4726 72.1716C53.3906 65.2825 51.9144 59.8697 49.0439 55.769C46.1735 51.7504 41.7447 49.7 35.8398 49.7C30.0168 49.7 25.6701 51.7504 22.7997 55.769C19.9292 59.8697 18.535 65.2825 18.535 72.1716ZM31.4111 72.1716C31.4111 70.9414 31.4111 69.9573 31.4111 69.3012C31.4111 68.6451 31.4931 67.7429 31.5751 66.5947C31.6571 65.4466 31.7391 64.5444 31.9852 63.9703C32.2312 63.3962 32.3952 62.6581 32.7233 62.002C33.0513 61.3459 33.4614 60.7718 33.9535 60.5258C34.5276 60.1977 35.1017 60.0337 35.8398 60.0337C36.988 60.0337 37.8901 60.3617 38.5462 61.0178C39.2023 61.6739 39.6944 62.7401 39.9404 64.1343C40.1865 65.6106 40.3505 66.7588 40.4325 67.8249C40.5145 68.8911 40.5145 70.2853 40.5145 72.0896C40.5145 73.9759 40.5145 75.3702 40.4325 76.3543C40.3505 77.3385 40.1865 78.5687 39.9404 80.0449C39.6944 81.4391 39.2023 82.5053 38.5462 83.1614C37.8901 83.8175 36.988 84.1456 35.8398 84.1456C35.1017 84.1456 34.5276 83.9816 33.9535 83.6535C33.3794 83.3254 32.9693 82.8334 32.7233 82.1773C32.3952 81.5212 32.1492 80.783 31.9852 80.2089C31.8211 79.5528 31.6571 78.6507 31.5751 77.5845C31.4931 76.4363 31.4111 75.5342 31.4111 74.9601C31.4111 74.386 31.4111 73.4018 31.4111 72.1716ZM36.2498 135.732H47.0756L88.0002 47.6497H76.9284L36.2498 135.732ZM71.5156 111.21C71.5976 118.099 73.1558 123.512 76.0263 127.613C78.8967 131.631 83.3255 133.682 89.1484 133.682C95.0533 133.682 99.4001 131.631 102.271 127.613C105.141 123.594 106.535 118.099 106.617 111.21C106.535 104.321 105.141 98.908 102.271 94.8893C99.4001 90.8707 95.0533 88.8203 89.1484 88.8203C83.3255 88.8203 78.8967 90.8707 76.0263 94.8893C73.0738 98.908 71.5976 104.321 71.5156 111.21ZM84.3916 111.21C84.3916 109.324 84.3916 107.929 84.4736 106.945C84.5557 105.961 84.7197 104.731 84.9657 103.255C85.2118 101.778 85.7038 100.794 86.3599 100.138C87.016 99.4821 87.9182 99.154 89.0664 99.154C89.8045 99.154 90.4606 99.318 91.0347 99.6461C91.6088 99.9741 92.0189 100.466 92.3469 101.204C92.675 101.942 92.921 102.599 93.167 103.173C93.4131 103.747 93.4951 104.649 93.5771 105.797L93.6591 108.421V111.21V114.08L93.5771 116.705L93.167 119.329L92.3469 121.298L91.0347 122.856L89.0664 123.348C87.9182 123.348 87.016 123.02 86.3599 122.364C85.7038 121.708 85.2118 120.641 84.9657 119.247C84.7197 117.771 84.5557 116.541 84.4736 115.557C84.3916 114.572 84.3916 113.096 84.3916 111.21Z" fill="#303030"/>
</svg>
